<?xml version="1.0" encoding="UTF-8"?>
<svg version="1.1" xmlns="http://www.w3.org/2000/svg" width="500" height="500">
<path d="M0 0 C165 0 330 0 500 0 C500 165 500 330 500 500 C335 500 170 500 0 500 C0 335 0 170 0 0 Z " fill="#00868D" transform="translate(0,0)"/>
<path d="M0 0 C0 2.31 0 4.62 0 7 C-0.98057373 7.03589233 -0.98057373 7.03589233 -1.98095703 7.07250977 C-21.09294977 7.809154 -21.09294977 7.809154 -38 16 C-38.99 17.32 -39.98 18.64 -41 20 C13.12 74.12 67.24 128.24 123 184 C132.06450698 179.46774651 139.44735097 171.78779112 146.78515625 164.87109375 C149 163 149 163 151 163 C151 162.01 151 161.02 151 160 C149.68 159.34 148.36 158.68 147 158 C147.33 157.01 147.66 156.02 148 155 C152 156 152 156 153.82421875 156.7734375 C156.16389782 157.24362569 156.16389782 157.24362569 158.41015625 155.48046875 C159.72306641 154.34544922 159.72306641 154.34544922 161.0625 153.1875 C162.02800781 152.35992187 162.99351562 151.53234375 163.98828125 150.6796875 C167.8528036 147.25986708 171.67716673 143.7963142 175.48046875 140.30859375 C184.54822335 132 184.54822335 132 187 132 C187 131.34 187 130.68 187 130 C188.32 130.66 189.64 131.32 191 132 C191 132.99 191 133.98 191 135 C188.9453125 136.9453125 188.9453125 136.9453125 186.125 139.125 C182.3021101 142.14615851 178.59246564 145.20786911 175 148.5 C170.58414173 152.52726274 166.00733447 156.31353578 161.34765625 160.0546875 C159.08636881 161.86685336 159.08636881 161.86685336 157.49609375 163.50390625 C155.4656189 165.5343811 153.24099774 167.26774745 151 169.0625 C145.9963291 173.123835 141.23331584 177.35837442 136.5078125 181.73828125 C134.07720126 183.93037456 131.57630752 185.98235414 129 188 C130.33159174 190.95435872 131.78408375 193.03334504 134.07283974 195.31893539 C134.70731643 195.95739419 135.34179313 196.59585298 135.99549639 197.25365901 C136.69393235 197.94626929 137.39236831 198.63887956 138.11196899 199.35247803 C138.85280082 200.0950187 139.59363265 200.83755938 140.35691392 201.60260129 C142.84730523 204.09629399 145.34479092 206.58275851 147.84228516 209.06933594 C149.62623819 210.852725 151.40975128 212.63655423 153.19285583 214.42079163 C157.03624611 218.26463774 160.8826841 222.10539283 164.73192215 225.94338226 C170.2972669 231.492474 175.85708183 237.04707914 181.41556196 242.60304609 C190.43394109 251.6170478 199.45677764 260.626574 208.48242188 269.63330078 C217.25006376 278.38258506 226.01560293 287.13396714 234.77832031 295.88818359 C235.31844107 296.4277789 235.85856182 296.9673742 236.41504987 297.52332088 C239.12465988 300.23032083 241.83422858 302.93736211 244.54377675 305.64442396 C267.02278357 328.10269684 289.50909979 350.55363761 312 373 C315.2021598 369.8712887 317.72310451 367.22723691 319.6875 363.1875 C320.08324219 362.39730469 320.47898437 361.60710937 320.88671875 360.79296875 C324.02337937 352.92380264 324.28586762 345.75391548 324.25396729 337.36769104 C324.25708727 336.10538805 324.26020725 334.84308507 324.26342177 333.54253048 C324.27174236 330.05485797 324.267657 326.56729544 324.26144934 323.07962263 C324.25691457 319.31199562 324.26391372 315.5443872 324.26940918 311.77676392 C324.27829414 304.40204807 324.27638509 297.02737298 324.2705839 289.65265555 C324.26606355 283.65749652 324.26545612 277.66234889 324.26763153 271.66718864 C324.26809123 270.38633235 324.26809123 270.38633235 324.26856022 269.07960017 C324.26919968 267.34479102 324.26984811 265.60998187 324.2705054 263.87517273 C324.27620615 247.61423516 324.26965497 231.35332016 324.25890467 215.0923863 C324.24997099 201.1477612 324.25152018 187.20316941 324.26074219 173.25854492 C324.27145208 157.05656334 324.27565517 140.85460154 324.26951766 124.65261692 C324.26888058 122.92395366 324.26825184 121.19529039 324.26763153 119.46662712 C324.26732298 118.61614336 324.26701443 117.7656596 324.26669653 116.8894036 C324.26497163 110.90379375 324.26788031 104.91819648 324.27259064 98.93258858 C324.27820752 91.63469019 324.27666611 84.33683481 324.26602915 77.03894133 C324.26078306 73.317332 324.25869751 69.59579431 324.26532745 65.87418556 C324.27241271 61.83582589 324.26393639 57.79764616 324.25396729 53.7592926 C324.25842873 52.58866211 324.26289017 51.41803162 324.26748681 50.21192747 C324.23690686 43.82472337 323.64227214 38.17865878 322 32 C321.26394531 32.63808594 320.52789062 33.27617188 319.76953125 33.93359375 C318.79371094 34.75988281 317.81789063 35.58617187 316.8125 36.4375 C315.84957031 37.26121094 314.88664062 38.08492187 313.89453125 38.93359375 C311.07790762 40.94438174 309.39364669 41.6587741 306 42 C305.34 41.01 304.68 40.02 304 39 C295.10463911 42.96266657 287.83174262 51.01331795 280.75390625 57.52734375 C277.16792716 60.74709519 273.43298508 63.75905176 269.68359375 66.78515625 C267.05291443 68.95632827 264.52057576 71.20241357 262 73.5 C258.60401318 76.59555196 255.13828469 79.55151207 251.5625 82.4375 C246.788597 86.29825137 242.26611572 90.37437075 237.75 94.53125 C234.19676307 97.7210877 230.49442762 100.70075373 226.7734375 103.69140625 C222.86404541 106.9455622 219.1889457 110.42278164 215.5078125 113.93359375 C213.04761455 115.9607662 211.00924818 117.01309603 208 118 C207.34 116.68 206.68 115.36 206 114 C207.42178788 112.78132468 208.84357853 111.5626526 210.26538086 110.34399414 C211.52405294 109.26510875 212.78267789 108.18616836 214.04125977 107.10717773 C217.19961355 104.39962603 220.35852082 101.69273113 223.51953125 98.98828125 C229.52968691 93.84456254 235.5254929 88.68510126 241.5 83.5 C249.2136508 76.80554642 256.96834397 70.15977351 264.72949219 63.52050781 C266.46582021 62.0348848 268.20179671 60.54885286 269.9375 59.0625 C270.50670166 58.57507324 271.07590332 58.08764648 271.66235352 57.58544922 C276.74400069 53.22893677 281.80208422 48.84544161 286.85131836 44.45141602 C290.53044629 41.25439818 294.24527015 38.10795474 298 35 C297.855625 34.4225 297.71125 33.845 297.5625 33.25 C297.04166667 31.16666667 296.52083333 29.08333333 296 27 C297.04800781 26.06027344 297.04800781 26.06027344 298.1171875 25.1015625 C299.02726562 24.28429687 299.93734375 23.46703125 300.875 22.625 C301.77992188 21.81289062 302.68484375 21.00078125 303.6171875 20.1640625 C305.10896183 18.80923795 306.57505435 17.42494565 308 16 C296.49711697 9.90347199 287.96047716 7.75075935 275 7 C275.66 4.69 276.32 2.38 277 0 C291.98101247 -0.71717613 304.58138562 2.71836282 316.3125 12.3125 C325.41213385 20.81787205 331.53457358 33.22491487 332.12880117 45.70513731 C332.13058974 46.63144294 332.13237831 47.55774857 332.13422108 48.51212406 C332.13867892 49.5889391 332.14313676 50.66575415 332.14772969 51.77519995 C332.14745315 53.53330115 332.14745315 53.53330115 332.14717102 55.32691956 C332.15084771 56.58060788 332.1545244 57.8342962 332.1583125 59.12597507 C332.16829711 62.59900736 332.17204356 66.07202236 332.17470181 69.54506695 C332.17861536 73.29371883 332.18819289 77.04235717 332.19691467 80.79100037 C332.21664863 89.84017583 332.22674104 98.88935236 332.23564246 107.93854395 C332.24003008 112.20407029 332.24539563 116.4695954 332.25063133 120.73512077 C332.26763994 134.92136788 332.28213332 149.10761423 332.28938007 163.29386997 C332.29128984 166.97268741 332.29321019 170.65150485 332.29516602 174.33032227 C332.29564976 175.24462857 332.2961335 176.15893488 332.2966319 177.10094743 C332.30492931 191.90663446 332.330263 206.71224063 332.36274669 221.51789237 C332.39585235 236.73150366 332.41383197 251.9450739 332.41702431 267.15872139 C332.41918608 275.69538417 332.42788587 284.231929 332.45348549 292.76855659 C332.47524038 300.03969598 332.48321941 307.31068873 332.47351871 314.58185697 C332.46898792 318.2878365 332.47078834 321.99351379 332.49028015 325.69945145 C332.51128418 329.72790952 332.50088212 333.75570354 332.48774719 337.78419495 C332.50420106 339.51887357 332.50420106 339.51887357 332.52098733 341.28859621 C332.40726858 355.80106247 327.34376565 368.5962954 317.6484375 379.39453125 C309.83941606 387 309.83941606 387 306 387 C306.0721875 386.38511719 306.144375 385.77023437 306.21875 385.13671875 C306.3115625 384.32847656 306.404375 383.52023437 306.5 382.6875 C306.5928125 381.88699219 306.685625 381.08648437 306.78125 380.26171875 C307.28409479 376.6325555 307.28409479 376.6325555 305.83301067 373.46041518 C305.28013787 372.90868154 304.72726507 372.3569479 304.15763855 371.78849506 C303.52366055 371.14854392 302.88968256 370.50859278 302.23649311 369.84924918 C301.52834052 369.14983512 300.82018793 368.45042105 300.09057617 367.72981262 C299.34736964 366.98404282 298.60416311 366.23827301 297.83843517 365.46990412 C295.33036808 362.9568706 292.81168141 360.45475312 290.29296875 357.95239258 C288.49924406 356.15951354 286.70617859 354.36597476 284.91372681 352.57182312 C281.04504035 348.7024521 277.17178782 344.83774372 273.29434204 340.97715187 C267.68818337 335.39534547 262.09029962 329.80530085 256.49441898 324.21319278 C247.41587201 315.14121623 238.33064186 306.07596324 229.24121094 297.01489258 C220.41022926 288.21143621 211.58239519 279.40484319 202.75878906 270.59399414 C202.21515587 270.05114912 201.67152267 269.50830409 201.11141574 268.94900922 C198.38426325 266.22577175 195.65717265 263.5024723 192.93011284 260.77914202 C170.29633188 238.17647534 147.65170695 215.58470226 125 193 C122.3049502 194.31104035 120.09220019 195.60467182 117.828125 197.57421875 C117.24949707 198.07405273 116.67086914 198.57388672 116.07470703 199.08886719 C115.47255371 199.61641602 114.87040039 200.14396484 114.25 200.6875 C113.3216333 201.4923584 113.3216333 201.4923584 112.37451172 202.31347656 C110.57934704 203.87150858 108.78905753 205.43496268 107 207 C106.11054688 207.77472656 105.22109375 208.54945313 104.3046875 209.34765625 C102.53266379 210.89420741 100.76393173 212.44423412 99 214 C99.350625 214.7425 99.70125 215.485 100.0625 216.25 C101.11809604 219.34641505 101.26421892 220.05015585 100 223 C98.07906289 224.91807004 96.21805937 226.60913201 94.125 228.3125 C93.31095703 229.01342773 93.31095703 229.01342773 92.48046875 229.72851562 C90.8828125 231.05078125 90.8828125 231.05078125 88 233 C84.133084 231.711028 82.93307445 229.833015 80.375 226.6875 C79.57835937 225.72199219 78.78171875 224.75648438 77.9609375 223.76171875 C76 221 76 221 75 217 C79.29 213.37 83.58 209.74 88 206 C89.32 206.66 90.64 207.32 92 208 C92.33 208.99 92.66 209.98 93 211 C99.11365227 206.22614812 104.99447992 201.28046626 110.7265625 196.0546875 C113.42157001 193.61899342 116.18567675 191.29589529 119 189 C117.72600226 186.21095983 116.41092451 184.16106931 114.2450943 181.99620533 C113.68151891 181.42803115 113.11794353 180.85985696 112.5372901 180.27446538 C111.91803734 179.66035619 111.29878459 179.046247 110.6607666 178.41352844 C110.00301695 177.75336438 109.34526731 177.09320032 108.66758585 176.41303128 C106.45825689 174.19805818 104.24183991 171.99031703 102.02539062 169.7824707 C100.44173131 168.1977387 98.858505 166.61257391 97.27568054 165.02700806 C92.9725265 160.71900102 88.66313898 156.41727916 84.35249138 152.11677194 C79.84845538 147.62150716 75.34967981 143.12098362 70.85021973 138.62113953 C63.2943391 131.06619584 55.73462046 123.51511213 48.17236328 115.96655273 C40.38715669 108.19544052 32.60546803 100.42082795 24.82763672 92.64233398 C24.34838668 92.16304399 23.86913665 91.683754 23.37536389 91.18994007 C22.89695142 90.71148725 22.41853895 90.23303443 21.92562914 89.74008304 C13.52393745 81.33773694 5.11935026 72.93829251 -3.28681946 64.54042625 C-6.86970893 60.96107481 -10.4517411 57.3808686 -14.03312683 53.80001259 C-18.24630815 49.58783294 -22.4620204 45.3782028 -26.679739 41.17056656 C-28.23104991 39.62218596 -29.78150622 38.07294863 -31.33106422 36.5228138 C-33.43866291 34.4147273 -35.54929128 32.30972318 -37.6607666 30.20552063 C-38.58964573 29.2743186 -38.58964573 29.2743186 -39.5372901 28.3243044 C-42.48835078 25.2926992 -42.48835078 25.2926992 -46 23 C-51.03282797 32.76589669 -53.74739842 41.50272527 -53.64596558 52.50744629 C-53.65502682 53.69613422 -53.66408806 54.88482215 -53.67342389 56.10953093 C-53.69333683 59.36917718 -53.69131969 62.62790947 -53.67953014 65.88756609 C-53.67226564 69.41885801 -53.69395899 72.94999441 -53.71192932 76.48123169 C-53.74261448 83.38541437 -53.74717068 90.28937487 -53.74295644 97.19361466 C-53.73916801 105.25509299 -53.76280017 113.3164235 -53.78772415 121.37785572 C-53.83143698 135.77957286 -53.85229083 150.18122978 -53.859375 164.58300781 C-53.86626277 178.51339897 -53.88640808 192.44367734 -53.92285156 206.37402344 C-53.92509034 207.23093727 -53.92732913 208.08785111 -53.92963575 208.97073203 C-53.93867029 212.41667505 -53.94773723 215.86261798 -53.95686179 219.30856076 C-53.99394899 233.44520274 -54.02089422 247.5818668 -54.04601526 261.71853447 C-54.05171887 264.9242046 -54.05777187 268.12987377 -54.06412268 271.33554268 C-54.08061809 279.7676022 -54.09362297 288.19964575 -54.09723715 296.63172168 C-54.09874492 300.11383115 -54.1016712 303.59591971 -54.10912132 307.078022 C-54.1321745 319.33279262 -54.12978079 331.58382128 -53.64993286 343.83093262 C-53.62365999 344.65728856 -53.59738712 345.4836445 -53.5703181 346.33504152 C-53.03518565 357.61521228 -48.30061625 366.76972156 -40.45703125 374.8671875 C-36.63587784 378.18411876 -32.49068592 380.69371871 -28 383 C-28.33 385.31 -28.66 387.62 -29 390 C-39.79719643 387.44276927 -48.72191452 378.77363534 -54.5 369.625 C-60.08327931 359.25605271 -61.44826161 348.56470772 -61.38095093 336.94482422 C-61.3856309 335.68530378 -61.39031087 334.42578335 -61.39513266 333.12809563 C-61.40754894 329.66660695 -61.40151562 326.20536935 -61.39217401 322.74388027 C-61.38534498 318.99738888 -61.39588371 315.25093861 -61.40411377 311.50445557 C-61.41741246 304.17872848 -61.41459067 296.85309392 -61.40587585 289.5273633 C-61.39908444 283.57046026 -61.39818887 277.61358305 -61.4014473 271.65667725 C-61.40213684 270.38209618 -61.40213684 270.38209618 -61.40284032 269.08176601 C-61.40379956 267.35525719 -61.4047722 265.62874837 -61.4057581 263.90223956 C-61.41430067 247.73513026 -61.40449567 231.56807209 -61.388357 215.40097117 C-61.37495485 201.5465854 -61.37728326 187.69227504 -61.39111328 173.83789062 C-61.40718914 157.72630383 -61.4134768 141.6147618 -61.40427649 125.50316811 C-61.4033209 123.78321966 -61.40237779 122.06327121 -61.4014473 120.34332275 C-61.40098447 119.49720519 -61.40052164 118.65108763 -61.40004479 117.77933013 C-61.39746092 111.8336497 -61.40181287 105.88799779 -61.40888596 99.94232178 C-61.41732348 92.6906992 -61.41497366 85.43917397 -61.39904372 78.18756247 C-61.39119119 74.49185171 -61.38801747 70.79630291 -61.39799118 67.10059357 C-61.40866296 63.08531497 -61.39587036 59.07044085 -61.38095093 55.05517578 C-61.38764309 53.89990324 -61.39433526 52.7446307 -61.40123022 51.5543499 C-61.29694642 37.03294373 -57.30327859 24.49002935 -47.3125 13.6875 C-33.39176974 0.83759515 -18.00761562 -0.54568532 0 0 Z " fill="#081214" transform="translate(122,60)"/>
<path d="M0 0 C165 0 330 0 500 0 C500 165 500 330 500 500 C499.34 500 498.68 500 498 500 C498 338.3 498 176.6 498 10 C333.66 10 169.32 10 0 10 C0 6.7 0 3.4 0 0 Z " fill="#FEFEFE" transform="translate(0,0)"/>
<path d="M0 0 C5 5.34883721 5 5.34883721 5 8 C3.04072937 9.7143618 1.04119788 11.38405168 -1 13 C-3.84383123 11.7251791 -6.13754018 10.54862922 -8 8 C-7.90664164 5.10589098 -6.98479822 3.98175786 -5.125 1.75 C-3 0 -3 0 0 0 Z " fill="#007E84" transform="translate(212,273)"/>
<path d="M0 0 C3.7952131 1.49097658 5.61042731 3.75700849 8 7 C5.36 8.98 2.72 10.96 0 13 C-1.98 10.36 -3.96 7.72 -6 5 C-4.02 3.35 -2.04 1.7 0 0 Z " fill="#007E85" transform="translate(430,83)"/>
<path d="M0 0 C3.94139078 1.66751148 6.7892812 4.22710649 10 7 C9.34 8.32 8.68 9.64 8 11 C4.17207132 9.4404735 1.63640136 7.16368164 -1 4 C-0.8125 1.6875 -0.8125 1.6875 0 0 Z " fill="#071B1D" transform="translate(293,237)"/>
<path d="M0 0 C0.99 0 1.98 0 3 0 C4.71140469 1.96185416 6.37873325 3.96302383 8 6 C8.66 6.33 9.32 6.66 10 7 C9.34 8.32 8.68 9.64 8 11 C4.17207132 9.4404735 1.63640136 7.16368164 -1 4 C-0.8125 1.6875 -0.8125 1.6875 0 0 Z " fill="#061C1E" transform="translate(259,203)"/>
<path d="M0 0 C3.86093856 1.33135812 6.24132985 4.0880704 9 7 C8.34 8.32 7.68 9.64 7 11 C5.86800647 10.0919838 4.74467637 9.17316174 3.625 8.25 C2.99851562 7.73953125 2.37203125 7.2290625 1.7265625 6.703125 C-0.08312318 4.91800519 -1.00117455 3.32050356 -2 1 C-1.34 0.67 -0.68 0.34 0 0 Z " fill="#071A1D" transform="translate(350,294)"/>
<path d="M0 0 C3.82792868 1.5595265 6.36359864 3.83631836 9 7 C8.8125 9.3125 8.8125 9.3125 8 11 C4.17207132 9.4404735 1.63640136 7.16368164 -1 4 C-0.8125 1.6875 -0.8125 1.6875 0 0 Z " fill="#07181A" transform="translate(327,271)"/>
<path d="M0 0 C3.86093856 1.33135812 6.24132985 4.0880704 9 7 C8.67 7.99 8.34 8.98 8 10 C4.71245489 9.42110619 3.06327505 8.45171589 0.75 6.0625 C0.22921875 5.53785156 -0.2915625 5.01320313 -0.828125 4.47265625 C-2 3 -2 3 -2 1 C-1.34 0.67 -0.68 0.34 0 0 Z " fill="#071A1D" transform="translate(316,260)"/>
<path d="M0 0 C3.59905908 0.55550695 4.99909799 1.74887248 7.25 4.5625 C7.77078125 5.20316406 8.2915625 5.84382813 8.828125 6.50390625 C9.21484375 6.99761719 9.6015625 7.49132812 10 8 C8.02 8.99 8.02 8.99 6 10 C3.69 7.69 1.38 5.38 -1 3 C-0.67 2.01 -0.34 1.02 0 0 Z " fill="#07181A" transform="translate(338,283)"/>
<path d="M0 0 C3.59905908 0.55550695 4.99909799 1.74887248 7.25 4.5625 C7.77078125 5.20316406 8.2915625 5.84382812 8.828125 6.50390625 C9.21484375 6.99761719 9.6015625 7.49132812 10 8 C8.02 8.99 8.02 8.99 6 10 C3.69 7.69 1.38 5.38 -1 3 C-0.67 2.01 -0.34 1.02 0 0 Z " fill="#07191B" transform="translate(304,249)"/>
<path d="M0 0 C1.34444159 0.90029571 2.67531438 1.82088022 4 2.75 C5.11375 3.51570312 5.11375 3.51570312 6.25 4.296875 C6.8275 4.85890625 7.405 5.4209375 8 6 C8 7.32 8 8.64 8 10 C7.01 10.33 6.02 10.66 5 11 C2.69 8.36 0.38 5.72 -2 3 C-1.34 2.01 -0.68 1.02 0 0 Z " fill="#07181B" transform="translate(226,169)"/>
<path d="M0 0 C4.25219775 0.47246642 6.37314725 2.77272377 9 6 C8.8125 8.3125 8.8125 8.3125 8 10 C4.18315774 8.44499019 1.80804268 5.96404505 -1 3 C-0.67 2.01 -0.34 1.02 0 0 Z " fill="#06191B" transform="translate(180,124)"/>
<path d="M0 0 C3.35250701 0.57575664 4.93818629 1.59306263 7.25 4.0625 C7.77078125 4.61035156 8.2915625 5.15820312 8.828125 5.72265625 C9.21484375 6.14417969 9.6015625 6.56570312 10 7 C9.67 7.99 9.34 8.98 9 10 C8.01 10 7.02 10 6 10 C4.28859531 8.03814584 2.62126675 6.03697617 1 4 C0.34 3.67 -0.32 3.34 -1 3 C-0.67 2.01 -0.34 1.02 0 0 Z " fill="#07171A" transform="translate(236,181)"/>
<path d="M0 0 C3.81684226 1.55500981 6.19195732 4.03595495 9 7 C8.67 7.99 8.34 8.98 8 10 C4.74402242 9.75881648 3.2723696 8.47775788 1.1875 6.125 C0.465625 5.09375 -0.25625 4.0625 -1 3 C-0.67 2.01 -0.34 1.02 0 0 Z " fill="#071518" transform="translate(282,226)"/>
<path d="M0 0 C0.48210937 0.42152344 0.96421875 0.84304687 1.4609375 1.27734375 C2.09257812 1.82519531 2.72421875 2.37304688 3.375 2.9375 C4.00148437 3.48277344 4.62796875 4.02804688 5.2734375 4.58984375 C6.95632334 6.06958624 6.95632334 6.06958624 9 7 C8.34 8.32 7.68 9.64 7 11 C6.34 11 5.68 11 5 11 C3.2734375 9.25 3.2734375 9.25 1.375 7 C0.74335938 6.2575 0.11171875 5.515 -0.5390625 4.75 C-1.02117187 4.1725 -1.50328125 3.595 -2 3 C-1.34 2.01 -0.68 1.02 0 0 Z " fill="#071518" transform="translate(192,135)"/>
<path d="M0 0 C3.35250701 0.57575664 4.93818629 1.59306263 7.25 4.0625 C8.03117188 4.88427734 8.03117188 4.88427734 8.828125 5.72265625 C9.21484375 6.14417969 9.6015625 6.56570312 10 7 C9.67 7.99 9.34 8.98 9 10 C5.17647894 8.4422692 2.70794407 6.08404742 0 3 C0 2.01 0 1.02 0 0 Z " fill="#081316" transform="translate(202,147)"/>
<path d="M0 0 C3.81684226 1.55500981 6.19195732 4.03595495 9 7 C8.67 7.99 8.34 8.98 8 10 C4.18315774 8.44499019 1.80804268 5.96404505 -1 3 C-0.67 2.01 -0.34 1.02 0 0 Z " fill="#081113" transform="translate(248,192)"/>
<path d="M0 0 C3.81684226 1.55500981 6.19195732 4.03595495 9 7 C8.67 7.99 8.34 8.98 8 10 C4.18315774 8.44499019 1.80804268 5.96404505 -1 3 C-0.67 2.01 -0.34 1.02 0 0 Z " fill="#081114" transform="translate(214,158)"/>
</svg>
